<svg width="66" height="66" viewBox="0 0 66 66" fill="none" xmlns="http://www.w3.org/2000/svg">
<rect width="66" height="66" rx="3" fill="#D0D9C4"/>
<path fill-rule="evenodd" clip-rule="evenodd" d="M47.9906 36.9751C47.2866 38.1698 46.4165 39.2586 45.4064 40.2087C45.7768 38.9807 46.0092 37.6935 46.084 36.3645C47.3753 34.3387 48.0595 31.9856 48.0557 29.5833C48.0557 22.6028 42.3974 16.9445 35.4169 16.9445C32.9212 16.9445 30.5947 17.6678 28.6357 18.9151C27.3319 18.9883 26.0415 19.2161 24.7915 19.5937C25.7416 18.5836 26.8304 17.7136 28.0251 17.0096C30.2646 15.69 32.8175 14.9959 35.4169 15C43.4707 15 50.0001 21.5294 50.0001 29.5833C50.0047 32.1828 49.3106 34.7357 47.9906 36.9751Z" fill="#5D743C"/>
<path fill-rule="evenodd" clip-rule="evenodd" d="M44.1665 35.4168C44.1665 43.4706 37.6371 50 29.5833 50C21.5294 50 15 43.4706 15 35.4168C15 27.3629 21.5294 20.8335 29.5833 20.8335C37.6371 20.8335 44.1665 27.3629 44.1665 35.4168ZM28.6111 30.5557C28.0954 30.5557 27.6008 30.7605 27.2361 31.1252C26.8715 31.4898 26.6666 31.9844 26.6666 32.5001C26.6666 33.0158 26.8715 33.5104 27.2361 33.875C27.6008 34.2397 28.0954 34.4445 28.6111 34.4445V30.5557ZM30.5555 28.6112V27.639H28.6111V28.6112C27.5797 28.6112 26.5905 29.021 25.8612 29.7503C25.1319 30.4796 24.7222 31.4687 24.7222 32.5001C24.7222 33.5315 25.1319 34.5207 25.8612 35.25C26.5905 35.9793 27.5797 36.389 28.6111 36.389V40.2779C27.7652 40.2779 27.0448 39.7383 26.7765 38.9819C26.7367 38.8581 26.6724 38.7436 26.5876 38.6451C26.5028 38.5466 26.399 38.4662 26.2826 38.4085C26.1661 38.3507 26.0392 38.317 25.9094 38.3092C25.7797 38.3014 25.6497 38.3196 25.5271 38.3629C25.4045 38.4063 25.2919 38.4737 25.1958 38.5613C25.0998 38.6489 25.0223 38.7549 24.9679 38.8729C24.9135 38.991 24.8834 39.1188 24.8792 39.2487C24.8751 39.3787 24.8971 39.5081 24.9438 39.6294C25.212 40.3877 25.7087 41.0442 26.3654 41.5086C27.0222 41.9729 27.8067 42.2223 28.6111 42.2223V43.1945H30.5555V42.2223C31.5869 42.2223 32.576 41.8126 33.3053 41.0833C34.0346 40.354 34.4444 39.3648 34.4444 38.3334C34.4444 37.302 34.0346 36.3129 33.3053 35.5836C32.576 34.8543 31.5869 34.4445 30.5555 34.4445V30.5557C31.4013 30.5557 32.1217 31.0953 32.3901 31.8516C32.4299 31.9754 32.4941 32.0899 32.5789 32.1884C32.6638 32.2869 32.7675 32.3674 32.884 32.4251C33.0005 32.4828 33.1273 32.5165 33.2571 32.5244C33.3869 32.5322 33.5169 32.5139 33.6394 32.4706C33.762 32.4273 33.8747 32.3598 33.9707 32.2722C34.0668 32.1846 34.1443 32.0787 34.1986 31.9606C34.253 31.8425 34.2832 31.7147 34.2873 31.5848C34.2914 31.4549 34.2695 31.3254 34.2227 31.2041C33.9545 30.4458 33.4579 29.7893 32.8011 29.325C32.1444 28.8606 31.3598 28.6113 30.5555 28.6112ZM30.5555 36.389V40.2779C31.0712 40.2779 31.5658 40.073 31.9304 39.7083C32.2951 39.3437 32.4999 38.8491 32.4999 38.3334C32.4999 37.8177 32.2951 37.3231 31.9304 36.9585C31.5658 36.5938 31.0712 36.389 30.5555 36.389Z" fill="#5D743C"/>
</svg>
