<svg width="66" height="66" viewBox="0 0 66 66" fill="none" xmlns="http://www.w3.org/2000/svg">
<rect width="66" height="66" rx="3" fill="#FFEACC"/>
<path fill-rule="evenodd" clip-rule="evenodd" d="M16.8636 19C15.3085 19 13.8171 19.611 12.7174 20.6985C11.6178 21.786 11 23.261 11 24.7991V40.2632C11 41.2885 11.4118 42.2719 12.1449 42.9969C12.878 43.7219 13.8723 44.1292 14.9091 44.1292H15.2414C15.6452 45.2611 16.394 46.2412 17.3847 46.9344C18.3754 47.6277 19.5591 48 20.7727 48C21.9863 48 23.1701 47.6277 24.1607 46.9344C25.1514 46.2412 25.9003 45.2611 26.3041 44.1292H38.6959C39.0997 45.2611 39.8486 46.2412 40.8393 46.9344C41.8299 47.6277 43.0137 48 44.2273 48C45.4409 48 46.6246 47.6277 47.6153 46.9344C48.606 46.2412 49.3548 45.2611 49.7586 44.1292H50.0909C51.1277 44.1292 52.122 43.7219 52.8551 42.9969C53.5882 42.2719 54 41.2885 54 40.2632V27.9035C54.0003 26.758 53.6575 25.6381 53.0149 24.685L50.9235 21.5825C50.3881 20.7882 49.6627 20.1368 48.8117 19.6863C47.9606 19.2358 47.0103 19.0001 46.045 19H16.8636ZM14.9091 24.7991C14.9091 24.2864 15.115 23.7947 15.4816 23.4322C15.8481 23.0697 16.3453 22.866 16.8636 22.866H20.7727V28.6651H14.9091V24.7991ZM30.5455 22.866H24.6818V28.6651H30.5455V22.866ZM34.4545 28.6651H40.3182V22.866H34.4545V28.6651ZM50.0909 30.5981V27.9035C50.091 27.5216 49.9767 27.1483 49.7625 26.8307L47.6712 23.7262C47.4926 23.4616 47.2508 23.2446 46.9671 23.0945C46.6834 22.9445 46.3667 22.866 46.045 22.866H44.2273V30.5981H50.0909ZM44.2273 40.2632C44.7457 40.2632 45.2428 40.4668 45.6093 40.8294C45.9759 41.1919 46.1818 41.6835 46.1818 42.1962C46.1818 42.7089 45.9759 43.2006 45.6093 43.5631C45.2428 43.9256 44.7457 44.1292 44.2273 44.1292C43.7089 44.1292 43.2117 43.9256 42.8452 43.5631C42.4787 43.2006 42.2727 42.7089 42.2727 42.1962C42.2727 41.6835 42.4787 41.1919 42.8452 40.8294C43.2117 40.4668 43.7089 40.2632 44.2273 40.2632ZM22.7273 42.1962C22.7273 41.6835 22.5213 41.1919 22.1548 40.8294C21.7883 40.4668 21.2911 40.2632 20.7727 40.2632C20.2544 40.2632 19.7572 40.4668 19.3907 40.8294C19.0241 41.1919 18.8182 41.6835 18.8182 42.1962C18.8182 42.7089 19.0241 43.2006 19.3907 43.5631C19.7572 43.9256 20.2544 44.1292 20.7727 44.1292C21.2911 44.1292 21.7883 43.9256 22.1548 43.5631C22.5213 43.2006 22.7273 42.7089 22.7273 42.1962Z" fill="#FFB955" fill-opacity="0.8"/>
</svg>
