<svg width="66" height="66" viewBox="0 0 66 66" fill="none" xmlns="http://www.w3.org/2000/svg">
<rect width="66" height="66" rx="3" fill="#FDD8CE"/>
<path d="M43.4166 26.75V22.5833C43.4166 16.75 38.8333 12.1666 33 12.1666C27.1666 12.1666 22.5833 16.75 22.5833 22.5833V26.75C19.0416 26.75 16.3333 29.4583 16.3333 33V47.5833C16.3333 51.125 19.0416 53.8333 22.5833 53.8333H43.4166C46.9583 53.8333 49.6666 51.125 49.6666 47.5833V33C49.6666 29.4583 46.9583 26.75 43.4166 26.75ZM26.75 22.5833C26.75 19.0416 29.4583 16.3333 33 16.3333C36.5416 16.3333 39.25 19.0416 39.25 22.5833V26.75H26.75V22.5833ZM35.2916 40.2916L35.0833 40.5V43.4166C35.0833 44.6666 34.25 45.5 33 45.5C31.75 45.5 30.9166 44.6666 30.9166 43.4166V40.5C29.6666 39.25 29.4583 37.375 30.7083 36.125C31.9583 34.875 33.8333 34.6666 35.0833 35.9166C36.3333 36.9583 36.5416 39.0416 35.2916 40.2916Z" fill="#9F2305" fill-opacity="0.7"/>
</svg>
