<svg width="60" height="60" viewBox="0 0 65 77" fill="none" xmlns="http://www.w3.org/2000/svg">
<path d="M56.5833 36.375H8.08333V16.1667H56.5833M50.5208 60.625C48.913 60.625 47.3709 59.9863 46.234 58.8493C45.0971 57.7124 44.4583 56.1704 44.4583 54.5625C44.4583 52.9546 45.0971 51.4126 46.234 50.2757C47.3709 49.1387 48.913 48.5 50.5208 48.5C52.1287 48.5 53.6707 49.1387 54.8077 50.2757C55.9446 51.4126 56.5833 52.9546 56.5833 54.5625C56.5833 56.1704 55.9446 57.7124 54.8077 58.8493C53.6707 59.9863 52.1287 60.625 50.5208 60.625ZM14.1458 60.625C12.538 60.625 10.9959 59.9863 9.859 58.8493C8.72206 57.7124 8.08333 56.1704 8.08333 54.5625C8.08333 52.9546 8.72206 51.4126 9.859 50.2757C10.9959 49.1387 12.538 48.5 14.1458 48.5C15.7537 48.5 17.2957 49.1387 18.4327 50.2757C19.5696 51.4126 20.2083 52.9546 20.2083 54.5625C20.2083 56.1704 19.5696 57.7124 18.4327 58.8493C17.2957 59.9863 15.7537 60.625 14.1458 60.625ZM0 56.5833C0 60.14 1.57625 63.3329 4.04167 65.5558V72.75C4.04167 73.8219 4.46748 74.8499 5.22544 75.6079C5.9834 76.3659 7.01142 76.7917 8.08333 76.7917H12.125C13.1969 76.7917 14.2249 76.3659 14.9829 75.6079C15.7408 74.8499 16.1667 73.8219 16.1667 72.75V68.7083H48.5V72.75C48.5 73.8219 48.9258 74.8499 49.6838 75.6079C50.4417 76.3659 51.4698 76.7917 52.5417 76.7917H56.5833C57.6553 76.7917 58.6833 76.3659 59.4412 75.6079C60.1992 74.8499 60.625 73.8219 60.625 72.75V65.5558C63.0904 63.3329 64.6667 60.14 64.6667 56.5833V16.1667C64.6667 2.02083 50.1975 0 32.3333 0C14.4692 0 0 2.02083 0 16.1667V56.5833Z" fill="#037743"/>
</svg>
