<svg width="60" height="60" viewBox="0 0 67 45" fill="none" xmlns="http://www.w3.org/2000/svg">
<path d="M0 40.0139V22.3333H67V40.0139C67 41.2934 66.5444 42.3887 65.6332 43.2999C64.7221 44.2111 63.6267 44.6666 62.3472 44.6666H4.65278C3.37326 44.6666 2.27792 44.2111 1.36675 43.2999C0.455584 42.3887 0 41.2934 0 40.0139ZM18.6111 33.5V37.2222H29.7778V33.5H18.6111ZM7.44444 33.5V37.2222H14.8889V33.5H7.44444ZM62.3472 0C63.6267 0 64.7221 0.455584 65.6332 1.36675C66.5444 2.27792 67 3.37326 67 4.65278V11.1667H0V4.65278C0 3.37326 0.455584 2.27792 1.36675 1.36675C2.27792 0.455584 3.37326 0 4.65278 0H62.3472Z" fill="#037743"/>
</svg>
