<svg width="21" height="24" viewBox="0 0 21 24" fill="none" xmlns="http://www.w3.org/2000/svg">
<path d="M2.23004 2.305H3.34503V0H5.57501V2.305H14.4949V0H16.7249V2.305H17.8399C19.0775 2.305 20.0699 3.33072 20.0699 4.61V20.745C20.0699 21.3563 19.8349 21.9426 19.4167 22.3749C18.9985 22.8071 18.4313 23.05 17.8399 23.05H2.23004C1.00355 23.05 6.10352e-05 22.0127 6.10352e-05 20.745V4.61C6.10352e-05 3.99868 0.235004 3.41239 0.653208 2.98012C1.07141 2.54785 1.63861 2.305 2.23004 2.305ZM2.23004 20.745H17.8399V8.0675H2.23004V20.745ZM10.035 18.44V16.135H14.4949V12.6775H10.035V10.3725L5.57501 14.4062L10.035 18.44Z" fill="#262626"/>
</svg>
