<svg width="40" height="31" viewBox="0 0 40 40" fill="none" xmlns="http://www.w3.org/2000/svg">
<circle cx="20" cy="20" r="20" fill="white"/>
<circle cx="20" cy="20" r="19.5" stroke="#262626" stroke-opacity="0.8"/>
<path d="M16.4628 25.6093C16.4628 25.3666 16.5592 25.1339 16.7308 24.9623C16.9024 24.7907 17.1351 24.6943 17.3778 24.6943H22.8678C23.1105 24.6943 23.3432 24.7907 23.5148 24.9623C23.6864 25.1339 23.7828 25.3666 23.7828 25.6093C23.7828 25.852 23.6864 26.0847 23.5148 26.2563C23.3432 26.4279 23.1105 26.5243 22.8678 26.5243H17.3778C17.1351 26.5243 16.9024 26.4279 16.7308 26.2563C16.5592 26.0847 16.4628 25.852 16.4628 25.6093ZM12.8028 20.1193C12.8028 19.8766 12.8992 19.6439 13.0708 19.4723C13.2424 19.3007 13.4751 19.2043 13.7178 19.2043H26.5278C26.7705 19.2043 27.0032 19.3007 27.1748 19.4723C27.3464 19.6439 27.4428 19.8766 27.4428 20.1193C27.4428 20.362 27.3464 20.5947 27.1748 20.7663C27.0032 20.9379 26.7705 21.0343 26.5278 21.0343H13.7178C13.4751 21.0343 13.2424 20.9379 13.0708 20.7663C12.8992 20.5947 12.8028 20.362 12.8028 20.1193ZM9.14279 14.6293C9.14279 14.3866 9.23919 14.1539 9.41079 13.9823C9.58238 13.8107 9.81512 13.7143 10.0578 13.7143H30.1878C30.4305 13.7143 30.6632 13.8107 30.8348 13.9823C31.0064 14.1539 31.1028 14.3866 31.1028 14.6293C31.1028 14.872 31.0064 15.1047 30.8348 15.2763C30.6632 15.4479 30.4305 15.5443 30.1878 15.5443H10.0578C9.81512 15.5443 9.58238 15.4479 9.41079 15.2763C9.23919 15.1047 9.14279 14.872 9.14279 14.6293Z" fill="#262626" fill-opacity="0.8"/>
</svg>
