<svg width="21" height="24" viewBox="0 0 21 24" fill="none" xmlns="http://www.w3.org/2000/svg">
<path d="M18.0003 2.305H16.8753V0H14.6252V2.305H5.62509V0H3.37505V2.305H2.25003C1.00127 2.305 0 3.33072 0 4.61V20.745C0 21.3563 0.237056 21.9426 0.65902 22.3749C1.08098 22.8071 1.65329 23.05 2.25003 23.05H18.0003C19.2378 23.05 20.2503 22.0127 20.2503 20.745V4.61C20.2503 3.99868 20.0133 3.41239 19.5913 2.98012C19.1693 2.54785 18.597 2.305 18.0003 2.305ZM18.0003 20.745H2.25003V8.0675H18.0003V20.745ZM10.1252 18.44V16.135H5.62509V12.6775H10.1252V10.3725L14.6252 14.4062L10.1252 18.44Z" fill="#262626"/>
</svg>
