<svg width="14" height="24" viewBox="0 0 14 24" fill="none" xmlns="http://www.w3.org/2000/svg">
<path d="M6.88848 0C5.06154 0 3.30943 0.710939 2.01759 1.97642C0.725749 3.2419 0 4.95826 0 6.74791C0 10.4755 6.88848 23.0509 6.88848 23.0509C6.88848 23.0509 13.777 10.4764 13.777 6.74791C13.777 4.95826 13.0512 3.2419 11.7594 1.97642C10.4675 0.710939 8.71542 0 6.88848 0ZM6.88848 9.97252C6.01545 9.97252 5.17817 9.63278 4.56085 9.02805C3.94352 8.42332 3.59671 7.60313 3.59671 6.74791C3.59671 5.8927 3.94352 5.07251 4.56085 4.46778C5.17817 3.86305 6.01545 3.52331 6.88848 3.52331C7.76152 3.52331 8.59879 3.86305 9.21612 4.46778C9.83345 5.07251 10.1803 5.8927 10.1803 6.74791C10.1803 7.60313 9.83345 8.42332 9.21612 9.02805C8.59879 9.63278 7.76152 9.97252 6.88848 9.97252Z" fill="#262626"/>
</svg>
