<svg width="24" height="26" viewBox="0 0 24 26" fill="none" xmlns="http://www.w3.org/2000/svg">
<path d="M19.2857 9H21.8571C22.1981 9 22.5252 9.13546 22.7663 9.37658C23.0074 9.6177 23.1429 9.94472 23.1429 10.2857V25.7143C23.1429 26.0553 23.0074 26.3823 22.7663 26.6234C22.5252 26.8645 22.1981 27 21.8571 27H1.28571C0.944722 27 0.617695 26.8645 0.376577 26.6234C0.135459 26.3823 0 26.0553 0 25.7143V10.2857C0 9.94472 0.135459 9.6177 0.376577 9.37658C0.617695 9.13546 0.944722 9 1.28571 9H3.85714V7.71429C3.85714 5.66833 4.6699 3.70617 6.1166 2.25946C7.56331 0.812753 9.52547 0 11.5714 0C13.6174 0 15.5795 0.812753 17.0263 2.25946C18.473 3.70617 19.2857 5.66833 19.2857 7.71429V9ZM2.57143 11.5714V24.4286H20.5714V11.5714H2.57143ZM10.2857 16.7143H12.8571V19.2857H10.2857V16.7143ZM5.14286 16.7143H7.71429V19.2857H5.14286V16.7143ZM15.4286 16.7143H18V19.2857H15.4286V16.7143ZM16.7143 9V7.71429C16.7143 6.35032 16.1725 5.04221 15.208 4.07774C14.2435 3.11326 12.9354 2.57143 11.5714 2.57143C10.2075 2.57143 8.89935 3.11326 7.93488 4.07774C6.97041 5.04221 6.42857 6.35032 6.42857 7.71429V9H16.7143Z" fill="#262626"/>
</svg>
