<svg width="158" height="32" viewBox="0 0 158 32" fill="none" xmlns="http://www.w3.org/2000/svg">
<path d="M8.12 24.21C6.72 24.21 5.46 23.97 4.34 23.49C3.22 22.99 2.34 22.29 1.7 21.39C1.06 20.49 0.74 19.44 0.74 18.24H4.4C4.48 19.14 4.83 19.88 5.45 20.46C6.09 21.04 6.98 21.33 8.12 21.33C9.3 21.33 10.22 21.05 10.88 20.49C11.54 19.91 11.87 19.17 11.87 18.27C11.87 17.57 11.66 17 11.24 16.56C10.84 16.12 10.33 15.78 9.71 15.54C9.11 15.3 8.27 15.04 7.19 14.76C5.83 14.4 4.72 14.04 3.86 13.68C3.02 13.3 2.3 12.72 1.7 11.94C1.1 11.16 0.8 10.12 0.8 8.82C0.8 7.62 1.1 6.57 1.7 5.67C2.3 4.77 3.14 4.08 4.22 3.6C5.3 3.12 6.55 2.88 7.97 2.88C9.99 2.88 11.64 3.39 12.92 4.41C14.22 5.41 14.94 6.79 15.08 8.55H11.3C11.24 7.79 10.88 7.14 10.22 6.6C9.56 6.06 8.69 5.79 7.61 5.79C6.63 5.79 5.83 6.04 5.21 6.54C4.59 7.04 4.28 7.76 4.28 8.7C4.28 9.34 4.47 9.87 4.85 10.29C5.25 10.69 5.75 11.01 6.35 11.25C6.95 11.49 7.77 11.75 8.81 12.03C10.19 12.41 11.31 12.79 12.17 13.17C13.05 13.55 13.79 14.14 14.39 14.94C15.01 15.72 15.32 16.77 15.32 18.09C15.32 19.15 15.03 20.15 14.45 21.09C13.89 22.03 13.06 22.79 11.96 23.37C10.88 23.93 9.6 24.21 8.12 24.21ZM27.9055 7.2C29.1655 7.2 30.2855 7.47 31.2655 8.01C32.2655 8.55 33.0455 9.35 33.6055 10.41C34.1855 11.47 34.4755 12.75 34.4755 14.25V24H31.0855V14.76C31.0855 13.28 30.7155 12.15 29.9755 11.37C29.2355 10.57 28.2255 10.17 26.9455 10.17C25.6655 10.17 24.6455 10.57 23.8855 11.37C23.1455 12.15 22.7755 13.28 22.7755 14.76V24H19.3555V1.8H22.7755V9.39C23.3555 8.69 24.0855 8.15 24.9655 7.77C25.8655 7.39 26.8455 7.2 27.9055 7.2ZM53.8079 7.47V24H50.3879V22.05C49.8479 22.73 49.1379 23.27 48.2579 23.67C47.3979 24.05 46.4779 24.24 45.4979 24.24C44.1979 24.24 43.0279 23.97 41.9879 23.43C40.9679 22.89 40.1579 22.09 39.5579 21.03C38.9779 19.97 38.6879 18.69 38.6879 17.19V7.47H42.0779V16.68C42.0779 18.16 42.4479 19.3 43.1879 20.1C43.9279 20.88 44.9379 21.27 46.2179 21.27C47.4979 21.27 48.5079 20.88 49.2479 20.1C50.0079 19.3 50.3879 18.16 50.3879 16.68V7.47H53.8079ZM62.3103 10.26V19.41C62.3103 20.03 62.4503 20.48 62.7303 20.76C63.0303 21.02 63.5303 21.15 64.2303 21.15H66.3303V24H63.6303C62.0903 24 60.9103 23.64 60.0903 22.92C59.2703 22.2 58.8603 21.03 58.8603 19.41V10.26H56.9103V7.47H58.8603V3.36H62.3103V7.47H66.3303V10.26H62.3103ZM73.4724 10.26V19.41C73.4724 20.03 73.6124 20.48 73.8924 20.76C74.1924 21.02 74.6924 21.15 75.3924 21.15H77.4924V24H74.7924C73.2524 24 72.0724 23.64 71.2524 22.92C70.4324 22.2 70.0224 21.03 70.0224 19.41V10.26H68.0724V7.47H70.0224V3.36H73.4724V7.47H77.4924V10.26H73.4724ZM84.0645 1.8V24H80.6445V1.8H84.0645ZM103.705 15.33C103.705 15.95 103.665 16.51 103.585 17.01H90.9547C91.0547 18.33 91.5447 19.39 92.4247 20.19C93.3047 20.99 94.3847 21.39 95.6647 21.39C97.5047 21.39 98.8047 20.62 99.5647 19.08H103.255C102.755 20.6 101.845 21.85 100.525 22.83C99.2247 23.79 97.6047 24.27 95.6647 24.27C94.0847 24.27 92.6647 23.92 91.4047 23.22C90.1647 22.5 89.1847 21.5 88.4647 20.22C87.7647 18.92 87.4147 17.42 87.4147 15.72C87.4147 14.02 87.7547 12.53 88.4347 11.25C89.1347 9.95 90.1047 8.95 91.3447 8.25C92.6047 7.55 94.0447 7.2 95.6647 7.2C97.2247 7.2 98.6147 7.54 99.8347 8.22C101.055 8.9 102.005 9.86 102.685 11.1C103.365 12.32 103.705 13.73 103.705 15.33ZM100.135 14.25C100.115 12.99 99.6647 11.98 98.7847 11.22C97.9047 10.46 96.8147 10.08 95.5147 10.08C94.3347 10.08 93.3247 10.46 92.4847 11.22C91.6447 11.96 91.1447 12.97 90.9847 14.25H100.135Z" fill="#037743"/>
<path d="M118.673 18.06C118.873 19.06 119.303 19.82 119.963 20.34C120.623 20.86 121.513 21.12 122.633 21.12C124.053 21.12 125.093 20.56 125.753 19.44C126.413 18.32 126.743 16.41 126.743 13.71C126.263 14.39 125.583 14.92 124.703 15.3C123.843 15.66 122.903 15.84 121.883 15.84C120.583 15.84 119.403 15.58 118.343 15.06C117.283 14.52 116.443 13.73 115.823 12.69C115.223 11.63 114.923 10.35 114.923 8.85C114.923 6.65 115.563 4.9 116.843 3.6C118.143 2.28 119.923 1.62 122.183 1.62C124.903 1.62 126.833 2.53 127.973 4.35C129.133 6.15 129.713 8.92 129.713 12.66C129.713 15.24 129.493 17.35 129.053 18.99C128.633 20.63 127.893 21.87 126.833 22.71C125.773 23.55 124.303 23.97 122.423 23.97C120.283 23.97 118.633 23.41 117.473 22.29C116.313 21.17 115.663 19.76 115.523 18.06H118.673ZM122.483 12.96C123.683 12.96 124.623 12.59 125.303 11.85C126.003 11.09 126.353 10.09 126.353 8.85C126.353 7.47 125.983 6.4 125.243 5.64C124.523 4.86 123.533 4.47 122.273 4.47C121.013 4.47 120.013 4.87 119.273 5.67C118.553 6.45 118.193 7.48 118.193 8.76C118.193 9.98 118.543 10.99 119.243 11.79C119.963 12.57 121.043 12.96 122.483 12.96ZM140.676 15.66C140.676 14 141.016 12.53 141.696 11.25C142.396 9.97 143.336 8.98 144.516 8.28C145.716 7.56 147.036 7.2 148.476 7.2C149.776 7.2 150.906 7.46 151.866 7.98C152.846 8.48 153.626 9.11 154.206 9.87V7.47H157.656V24H154.206V21.54C153.626 22.32 152.836 22.97 151.836 23.49C150.836 24.01 149.696 24.27 148.416 24.27C146.996 24.27 145.696 23.91 144.516 23.19C143.336 22.45 142.396 21.43 141.696 20.13C141.016 18.81 140.676 17.32 140.676 15.66ZM154.206 15.72C154.206 14.58 153.966 13.59 153.486 12.75C153.026 11.91 152.416 11.27 151.656 10.83C150.896 10.39 150.076 10.17 149.196 10.17C148.316 10.17 147.496 10.39 146.736 10.83C145.976 11.25 145.356 11.88 144.876 12.72C144.416 13.54 144.186 14.52 144.186 15.66C144.186 16.8 144.416 17.8 144.876 18.66C145.356 19.52 145.976 20.18 146.736 20.64C147.516 21.08 148.336 21.3 149.196 21.3C150.076 21.3 150.896 21.08 151.656 20.64C152.416 20.2 153.026 19.56 153.486 18.72C153.966 17.86 154.206 16.86 154.206 15.72Z" fill="#049F5A"/>
<path d="M135.646 5.28C135.026 5.28 134.506 5.07 134.086 4.65C133.666 4.23 133.456 3.71 133.456 3.09C133.456 2.47 133.666 1.95 134.086 1.53C134.506 1.11 135.026 0.899999 135.646 0.899999C136.246 0.899999 136.756 1.11 137.176 1.53C137.596 1.95 137.806 2.47 137.806 3.09C137.806 3.71 137.596 4.23 137.176 4.65C136.756 5.07 136.246 5.28 135.646 5.28ZM137.326 27.24C137.326 28.86 136.916 30.03 136.096 30.75C135.296 31.49 134.126 31.86 132.586 31.86H130.816V28.98H131.986C132.686 28.98 133.176 28.84 133.456 28.56C133.756 28.3 133.906 27.86 133.906 27.24V7.47H137.326V27.24Z" fill="#A6B501"/>
</svg>
