<svg width="34" height="39" viewBox="0 0 34 39" fill="none" xmlns="http://www.w3.org/2000/svg">
<path d="M27.4986 13.8435C27.4986 11.0971 26.3857 8.46325 24.4046 6.52126C22.4235 4.57928 19.7365 3.48828 16.9348 3.48828C14.1332 3.48828 11.4462 4.57928 9.46513 6.52126C7.48403 8.46325 6.37106 11.0971 6.37106 13.8435C6.37106 25.9246 1.08917 29.3764 1.08917 29.3764H32.7805C32.7805 29.3764 27.4986 25.9246 27.4986 13.8435Z" stroke="#262626" stroke-width="2" stroke-linecap="round" stroke-linejoin="round"/>
<path d="M19.9806 36.2793C19.671 36.8024 19.2267 37.2366 18.6922 37.5384C18.1576 37.8402 17.5516 37.9991 16.9347 37.9991C16.3178 37.9991 15.7117 37.8402 15.1772 37.5384C14.6426 37.2366 14.1983 36.8024 13.8888 36.2793" stroke="#262626" stroke-width="2" stroke-linecap="round" stroke-linejoin="round"/>
<ellipse cx="24.7017" cy="4.74615" rx="4.84173" ry="4.74615" fill="#FF0000"/>
</svg>
