<svg width="25" height="25" viewBox="0 0 25 25" fill="none" xmlns="http://www.w3.org/2000/svg">
<path d="M24.3336 5.22603L19.944 0.813906C19.6539 0.525297 19.2613 0.363281 18.8521 0.363281C18.443 0.363281 18.0504 0.525297 17.7603 0.813906L2.19826 16.3535L0.777408 22.4856C0.728394 22.7098 0.730074 22.9421 0.782326 23.1655C0.834578 23.3889 0.936083 23.5979 1.07942 23.7771C1.22277 23.9562 1.40432 24.1011 1.61083 24.2011C1.81734 24.3012 2.04359 24.3538 2.27304 24.3552C2.37996 24.366 2.48769 24.366 2.5946 24.3552L8.79401 22.9343L24.3336 7.40965C24.6223 7.11958 24.7843 6.72703 24.7843 6.31784C24.7843 5.90865 24.6223 5.5161 24.3336 5.22603ZM8.04619 21.5883L2.23565 22.8072L3.55929 17.1088L15.2028 5.5102L19.6897 9.9971L8.04619 21.5883ZM20.6918 8.91276L16.2049 4.42586L18.8073 1.83842L23.2194 6.32532L20.6918 8.91276Z" fill="#262626"/>
</svg>
