<svg width="24" height="24" viewBox="0 0 24 24" fill="none" xmlns="http://www.w3.org/2000/svg">
<path d="M12 1.63816C9.15241 1.63816 6.42145 2.76936 4.40791 4.78291C2.39436 6.79645 1.26316 9.52741 1.26316 12.375C1.26316 15.2226 2.39436 17.9535 4.40791 19.9671C6.42145 21.9806 9.15241 23.1118 12 23.1118C13.41 23.1118 14.8062 22.8341 16.1088 22.2945C17.4115 21.755 18.5951 20.9641 19.5921 19.9671C20.5891 18.9701 21.38 17.7865 21.9195 16.4838C22.4591 15.1812 22.7368 13.785 22.7368 12.375C22.7368 9.52741 21.6056 6.79645 19.5921 4.78291C17.5785 2.76936 14.8476 1.63816 12 1.63816ZM12 0.375C15.1826 0.375 18.2348 1.63928 20.4853 3.88972C22.7357 6.14015 24 9.1924 24 12.375C24 15.5576 22.7357 18.6098 20.4853 20.8603C18.2348 23.1107 15.1826 24.375 12 24.375C8.8174 24.375 5.76515 23.1107 3.51472 20.8603C1.26428 18.6098 0 15.5576 0 12.375C0 9.1924 1.26428 6.14015 3.51472 3.88972C5.76515 1.63928 8.8174 0.375 12 0.375ZM11.3684 18.0592H12.6316V20.5855H11.3684V18.0592ZM12 4.16447C13.1725 4.16447 14.297 4.63026 15.1262 5.45937C15.9553 6.28848 16.4211 7.41299 16.4211 8.58553C16.4211 9.72237 15.5368 10.4803 14.6021 11.3392L13.4274 12.4761C12.6821 13.3224 12.5937 14.9392 12.6316 15.495V15.5329H11.3684C11.3684 15.4697 11.2421 13.0571 12.4674 11.6424L13.7684 10.3918C14.5263 9.72237 15.1579 9.15395 15.1579 8.58553C15.1579 7.748 14.8252 6.94478 14.233 6.35256C13.6407 5.76034 12.8375 5.42763 12 5.42763C11.1625 5.42763 10.3593 5.76034 9.76703 6.35256C9.17481 6.94478 8.8421 7.748 8.8421 8.58553H7.57895C7.57895 7.41299 8.04474 6.28848 8.87384 5.45937C9.70295 4.63026 10.8275 4.16447 12 4.16447Z" fill="#262626"/>
</svg>
