<svg width="60" height="60" viewBox="0 0 78 78" fill="none" xmlns="http://www.w3.org/2000/svg">
<path fill-rule="evenodd" clip-rule="evenodd" d="M0.0833741 34.4374C0.0838408 28.9593 1.39435 23.5608 3.90555 18.6921C6.41676 13.8235 10.0559 9.62601 14.5192 6.44984C18.9826 3.27367 24.1408 1.21092 29.5635 0.433705C34.9862 -0.343514 40.5161 0.18733 45.6919 1.98195C50.8677 3.77656 55.5393 6.78291 59.3169 10.7502C63.0946 14.7174 65.8687 19.5306 67.4078 24.788C68.947 30.0454 69.2066 35.5947 68.1649 40.9729C67.1232 46.351 64.8105 51.4021 61.4197 55.7047L76.1799 70.4648C76.9161 71.2271 77.3235 72.248 77.3143 73.3078C77.3051 74.3675 76.88 75.3812 76.1306 76.1305C75.3813 76.8799 74.3676 77.3049 73.3079 77.3141C72.2482 77.3233 71.2272 76.916 70.465 76.1798L55.7048 61.4196C50.639 65.4127 44.5514 67.899 38.1386 68.5939C31.7258 69.2889 25.2469 68.1643 19.4433 65.349C13.6398 62.5337 8.74611 58.1413 5.32231 52.6746C1.89851 47.208 0.082941 40.8878 0.0833741 34.4374ZM34.4375 16.2499C33.3656 16.2499 32.3376 16.6757 31.5797 17.4337C30.8217 18.1917 30.3959 19.2197 30.3959 20.2916C30.3959 21.3635 30.8217 22.3915 31.5797 23.1495C32.3376 23.9074 33.3656 24.3333 34.4375 24.3333C37.1173 24.3333 39.6874 25.3978 41.5823 27.2927C43.4772 29.1876 44.5417 31.7576 44.5417 34.4374C44.5417 35.5093 44.9675 36.5374 45.7255 37.2953C46.4834 38.0533 47.5115 38.4791 48.5834 38.4791C49.6553 38.4791 50.6833 38.0533 51.4413 37.2953C52.1992 36.5374 52.625 35.5093 52.625 34.4374C52.625 29.6138 50.7089 24.9877 47.298 21.5769C43.8872 18.1661 39.2612 16.2499 34.4375 16.2499Z" fill="#037743"/>
</svg>
