<svg width="60" height="60" viewBox="0 0 67 53" fill="none" xmlns="http://www.w3.org/2000/svg">
<path fill-rule="evenodd" clip-rule="evenodd" d="M44.6667 0V4.72722C44.6667 5.46762 44.9608 6.17769 45.4843 6.70123C46.0079 7.22477 46.7179 7.51889 47.4583 7.51889C48.1987 7.51889 48.9088 7.22477 49.4323 6.70123C49.9559 6.17769 50.25 5.46762 50.25 4.72722V0H58.625C59.7248 0 60.8139 0.216626 61.83 0.637509C62.8461 1.05839 63.7693 1.67529 64.547 2.45298C65.3247 3.23067 65.9416 4.15392 66.3625 5.17003C66.7834 6.18613 67 7.27518 67 8.375V18.157C66.9999 18.7342 66.8209 19.2972 66.4876 19.7685C66.1543 20.2398 65.6831 20.5962 65.1389 20.7886C64.0483 21.1723 63.1037 21.885 62.4355 22.8284C61.7673 23.7719 61.4084 24.8995 61.4084 26.0556C61.4084 27.2117 61.7673 28.3393 62.4355 29.2827C63.1037 30.2261 64.0483 30.9388 65.1389 31.3225C66.2556 31.7171 67 32.7742 67 33.9541V43.7361C67 44.8359 66.7834 45.925 66.3625 46.9411C65.9416 47.9572 65.3247 48.8804 64.547 49.6581C63.7693 50.4358 62.8461 51.0527 61.83 51.4736C60.8139 51.8945 59.7248 52.1111 58.625 52.1111H50.25V47.3839C50.25 46.6435 49.9559 45.9334 49.4323 45.4099C48.9088 44.8863 48.1987 44.5922 47.4583 44.5922C46.7179 44.5922 46.0079 44.8863 45.4843 45.4099C44.9608 45.9334 44.6667 46.6435 44.6667 47.3839V52.1111H8.375C6.15381 52.1111 4.0236 51.2287 2.45298 49.6581C0.882363 48.0875 0 45.9573 0 43.7361V33.9541C0 32.7704 0.744444 31.7171 1.86111 31.3225C2.9517 30.9388 3.89631 30.2261 4.56453 29.2827C5.23275 28.3393 5.59163 27.2117 5.59163 26.0556C5.59163 24.8995 5.23275 23.7719 4.56453 22.8284C3.89631 21.885 2.9517 21.1723 1.86111 20.7886C1.31689 20.5962 0.845694 20.2398 0.512395 19.7685C0.179096 19.2972 8.21856e-05 18.7342 0 18.157V8.375C0 6.15381 0.882363 4.0236 2.45298 2.45298C4.0236 0.882363 6.15381 0 8.375 0H44.6667ZM50.25 16.3629C50.25 15.6225 49.9559 14.9124 49.4323 14.3889C48.9088 13.8653 48.1987 13.5712 47.4583 13.5712C46.7179 13.5712 46.0079 13.8653 45.4843 14.3889C44.9608 14.9124 44.6667 15.6225 44.6667 16.3629V20.2414C44.6667 20.9818 44.9608 21.6919 45.4843 22.2155C46.0079 22.739 46.7179 23.0331 47.4583 23.0331C48.1987 23.0331 48.9088 22.739 49.4323 22.2155C49.9559 21.6919 50.25 20.9818 50.25 20.2414V16.3629ZM50.25 31.8734C50.25 31.133 49.9559 30.4229 49.4323 29.8994C48.9088 29.3758 48.1987 29.0817 47.4583 29.0817C46.7179 29.0817 46.0079 29.3758 45.4843 29.8994C44.9608 30.4229 44.6667 31.133 44.6667 31.8734V35.7482C44.6667 36.4886 44.9608 37.1987 45.4843 37.7222C46.0079 38.2458 46.7179 38.5399 47.4583 38.5399C48.1987 38.5399 48.9088 38.2458 49.4323 37.7222C49.9559 37.1987 50.25 36.4886 50.25 35.7482V31.8734ZM18.6111 28.8472C18.6111 28.1068 18.9052 27.3968 19.4288 26.8732C19.9523 26.3497 20.6624 26.0556 21.4028 26.0556H34.4306C35.171 26.0556 35.881 26.3497 36.4046 26.8732C36.9281 27.3968 37.2222 28.1068 37.2222 28.8472C37.2222 29.5876 36.9281 30.2977 36.4046 30.8212C35.881 31.3448 35.171 31.6389 34.4306 31.6389H21.4028C20.6624 31.6389 19.9523 31.3448 19.4288 30.8212C18.9052 30.2977 18.6111 29.5876 18.6111 28.8472ZM18.6111 38.1528C18.6111 37.4124 18.9052 36.7023 19.4288 36.1788C19.9523 35.6552 20.6624 35.3611 21.4028 35.3611H26.9861C27.7265 35.3611 28.4366 35.6552 28.9601 36.1788C29.4837 36.7023 29.7778 37.4124 29.7778 38.1528C29.7778 38.8932 29.4837 39.6032 28.9601 40.1268C28.4366 40.6503 27.7265 40.9444 26.9861 40.9444H21.4028C20.6624 40.9444 19.9523 40.6503 19.4288 40.1268C18.9052 39.6032 18.6111 38.8932 18.6111 38.1528Z" fill="#037743"/>
</svg>
