<svg width="25" height="25" viewBox="0 0 25 25" fill="none" xmlns="http://www.w3.org/2000/svg">
<path d="M2.94976 0.695312L3.08475 0.707311C3.23459 0.734686 3.37254 0.807041 3.48025 0.914749C3.58796 1.02246 3.66031 1.16041 3.68769 1.31025L3.69969 1.44524V4.7614C5.49446 2.72572 7.92633 1.35861 10.5983 0.883256C13.2702 0.407904 16.0244 0.852394 18.4111 2.14416C20.7979 3.43592 22.6762 5.49865 23.7395 7.99558C24.8027 10.4925 24.9881 13.2761 24.2654 15.892C23.5426 18.5079 21.9544 20.8015 19.76 22.3984C17.5657 23.9952 14.8948 24.801 12.1834 24.6842C9.47201 24.5674 6.88032 23.5348 4.83145 21.7551C2.78257 19.9754 1.39754 17.5537 0.902472 14.8854C0.742187 13.904 0.676892 12.9095 0.707492 11.9157C0.724714 11.7236 0.815292 11.5455 0.960404 11.4184C1.10552 11.2914 1.294 11.2251 1.4867 11.2334C1.6794 11.2417 1.86149 11.3239 1.99513 11.463C2.12878 11.6021 2.2037 11.7873 2.20434 11.9802C2.17859 12.861 2.23584 13.7423 2.37532 14.6124C2.8175 16.9976 4.07205 19.1562 5.92571 20.7211C7.77937 22.286 10.1178 23.1606 12.5434 23.1965C14.969 23.2323 17.3322 22.427 19.2312 20.9175C21.1303 19.408 22.448 17.2875 22.9604 14.9163C23.4728 12.5451 23.1483 10.0697 22.042 7.91075C20.9357 5.7518 19.1159 4.04258 16.8919 3.07362C14.6679 2.10466 12.177 1.93575 9.84259 2.59561C7.50817 3.25547 5.47428 4.70337 4.08665 6.6932H8.19623L8.33121 6.7067C8.50412 6.738 8.66054 6.82903 8.77318 6.9639C8.88582 7.09877 8.94752 7.2689 8.94752 7.44462C8.94752 7.62034 8.88582 7.79048 8.77318 7.92534C8.66054 8.06021 8.50412 8.15124 8.33121 8.18255L8.19623 8.19454H2.94976L2.81478 8.18255C2.66473 8.15507 2.52663 8.0825 2.4189 7.9745C2.31117 7.8665 2.23894 7.72822 2.21184 7.57811L2.19984 7.44312V1.44374L2.21184 1.30875C2.23949 1.15918 2.31196 1.02156 2.41965 0.914141C2.52734 0.806723 2.66514 0.734589 2.81478 0.707311L2.94976 0.695312ZM11.9488 6.6947L12.0838 6.7067C12.2337 6.73407 12.3716 6.80643 12.4793 6.91413C12.587 7.02184 12.6594 7.15979 12.6868 7.30963L12.6988 7.44462V12.6986H15.6985L15.8334 12.7106C16.0055 12.7427 16.1608 12.834 16.2727 12.9686C16.3845 13.1033 16.4457 13.2728 16.4457 13.4478C16.4457 13.6228 16.3845 13.7923 16.2727 13.9269C16.1608 14.0615 16.0055 14.1528 15.8334 14.1849L15.6985 14.1984H11.9488L11.8139 14.1864C11.664 14.1591 11.5261 14.0867 11.4184 13.979C11.3106 13.8713 11.2383 13.7333 11.2109 13.5835L11.1989 13.4485V7.44612L11.2109 7.31114C11.2383 7.16129 11.3106 7.02334 11.4184 6.91563C11.5261 6.80793 11.664 6.73557 11.8139 6.7082L11.9488 6.6962V6.6947Z" fill="#262626"/>
</svg>
