<svg width="232" height="244" viewBox="0 0 232 244" fill="none" xmlns="http://www.w3.org/2000/svg">
<path d="M111.104 1.82313C112.458 0.647421 114.19 0 115.983 0C117.776 0 119.508 0.647421 120.861 1.82313L145.012 22.7997C145.764 23.4537 146.64 23.9498 147.588 24.2586C148.535 24.5674 149.535 24.6826 150.528 24.5973L182.415 21.8203C184.2 21.667 185.981 22.1632 187.429 23.2178C188.878 24.2723 189.897 25.8144 190.3 27.5603L197.515 58.7277C197.738 59.7016 198.154 60.6207 198.74 61.4302C199.326 62.2396 200.069 62.9227 200.924 63.4387L228.348 79.9274C229.882 80.8514 231.032 82.298 231.585 84.0016C232.139 85.7052 232.059 87.5513 231.36 89.2007L218.864 118.657C218.475 119.575 218.275 120.561 218.275 121.558C218.275 122.555 218.475 123.541 218.864 124.459L231.36 153.916C232.062 155.567 232.144 157.415 231.59 159.122C231.037 160.828 229.885 162.277 228.348 163.201L200.924 179.69C200.07 180.205 199.328 180.886 198.742 181.693C198.157 182.5 197.739 183.417 197.515 184.389L190.3 215.556C189.897 217.302 188.878 218.844 187.429 219.899C185.981 220.953 184.2 221.449 182.415 221.296L150.528 218.519C149.536 218.432 148.537 218.545 147.589 218.852C146.641 219.159 145.765 219.653 145.012 220.304L120.849 241.293C119.496 242.469 117.763 243.116 115.97 243.116C114.178 243.116 112.445 242.469 111.092 241.293L86.9417 220.304C86.1885 219.653 85.3121 219.159 84.3644 218.852C83.4167 218.545 82.4171 218.432 81.4248 218.519L49.5385 221.296C47.7532 221.449 45.9727 220.953 44.5241 219.899C43.0755 218.844 42.0562 217.302 41.6537 215.556L34.4383 184.389C34.2155 183.415 33.7989 182.496 33.2131 181.686C32.6273 180.877 31.8845 180.194 31.029 179.678L3.60572 163.189C2.07118 162.265 0.921588 160.818 0.368148 159.115C-0.185292 157.411 -0.105406 155.565 0.593128 153.916L13.0898 124.459C13.4785 123.541 13.6788 122.555 13.6788 121.558C13.6788 120.561 13.4785 119.575 13.0898 118.657L0.593128 89.2007C-0.108836 87.5498 -0.190546 85.7009 0.363055 83.9945C0.916656 82.2881 2.06827 80.8393 3.60572 79.915L31.029 63.4263C31.8832 62.9117 32.6252 62.2305 33.2109 61.4233C33.7966 60.6161 34.214 59.6994 34.4383 58.7277L41.6537 27.5603C42.0562 25.8144 43.0755 24.2723 44.5241 23.2178C45.9727 22.1632 47.7532 21.667 49.5385 21.8203L81.4248 24.5973C82.4179 24.6826 83.4181 24.5674 84.3658 24.2586C85.3135 23.9498 86.1895 23.4537 86.9417 22.7997L111.104 1.82313V1.82313Z" fill="#037743"/>
<path d="M73.2522 128.276L98.0472 153.071L160.035 91.084" fill="#037743"/>
<path d="M73.2522 128.276L98.0472 153.071L160.035 91.084" stroke="white" stroke-width="5" stroke-linecap="round" stroke-linejoin="round"/>
</svg>
